<svg width="686" height="265" viewBox="0 0 686 265" fill="none" xmlns="http://www.w3.org/2000/svg">
<path d="M218.35 165.7C213.683 165.7 209.483 164.697 205.75 162.69C202.063 160.637 199.147 157.72 197 153.94C194.9 150.113 193.85 145.657 193.85 140.57C193.85 135.483 194.9 131.05 197 127.27C199.147 123.443 202.063 120.527 205.75 118.52C209.483 116.467 213.683 115.44 218.35 115.44C221.523 115.44 224.347 115.813 226.82 116.56C229.34 117.307 231.837 118.38 234.31 119.78C235.337 120.34 235.85 121.227 235.85 122.44C235.85 123.14 235.593 123.77 235.08 124.33C234.567 124.843 233.89 125.1 233.05 125.1C232.583 125.1 232.163 125.007 231.79 124.82C229.737 123.747 227.73 122.93 225.77 122.37C223.81 121.81 221.547 121.53 218.98 121.53C214.967 121.53 211.537 122.37 208.69 124.05C205.89 125.683 203.767 127.947 202.32 130.84C200.92 133.687 200.22 136.93 200.22 140.57C200.22 144.21 200.92 147.477 202.32 150.37C203.767 153.217 205.89 155.48 208.69 157.16C211.537 158.793 214.967 159.61 218.98 159.61C221.547 159.61 223.81 159.33 225.77 158.77C227.73 158.21 229.737 157.393 231.79 156.32C232.163 156.133 232.583 156.04 233.05 156.04C233.89 156.04 234.567 156.297 235.08 156.81C235.593 157.323 235.85 157.953 235.85 158.7C235.85 159.913 235.337 160.8 234.31 161.36C231.837 162.76 229.34 163.833 226.82 164.58C224.347 165.327 221.523 165.7 218.35 165.7Z" fill="black"/>
<path d="M253.302 165.7C251.249 165.7 249.335 165.28 247.562 164.44C245.835 163.6 244.459 162.387 243.432 160.8C242.405 159.167 241.892 157.3 241.892 155.2C241.892 151.747 243.245 148.993 245.952 146.94C248.705 144.887 252.719 143.86 257.992 143.86H266.462V143.3C266.462 140.22 265.692 138.003 264.152 136.65C262.659 135.297 260.302 134.62 257.082 134.62C255.309 134.62 253.722 134.76 252.322 135.04C250.969 135.32 249.452 135.74 247.772 136.3C247.399 136.393 247.095 136.44 246.862 136.44C246.162 136.44 245.555 136.183 245.042 135.67C244.529 135.157 244.272 134.527 244.272 133.78C244.272 132.52 244.879 131.633 246.092 131.12C250.059 129.44 254.095 128.6 258.202 128.6C261.422 128.6 264.129 129.253 266.322 130.56C268.562 131.867 270.195 133.57 271.222 135.67C272.295 137.723 272.832 139.963 272.832 142.39V162.2C272.832 163.087 272.505 163.833 271.852 164.44C271.245 165.047 270.499 165.35 269.612 165.35C268.725 165.35 267.979 165.047 267.372 164.44C266.765 163.833 266.462 163.087 266.462 162.2V160.38C263.009 163.927 258.622 165.7 253.302 165.7ZM255.682 160.1C257.735 160.1 259.719 159.61 261.632 158.63C263.545 157.603 265.155 156.343 266.462 154.85V148.97H258.832C251.785 148.97 248.262 150.813 248.262 154.5C248.262 156.18 248.822 157.533 249.942 158.56C251.109 159.587 253.022 160.1 255.682 160.1Z" fill="black"/>
<path d="M286.658 165.35C285.772 165.35 285.025 165.047 284.418 164.44C283.812 163.833 283.508 163.087 283.508 162.2V132.17C283.508 131.283 283.812 130.537 284.418 129.93C285.025 129.277 285.772 128.95 286.658 128.95C287.545 128.95 288.292 129.277 288.898 129.93C289.552 130.537 289.878 131.283 289.878 132.17V135.18C293.145 130.793 296.808 128.6 300.868 128.6H301.218C302.105 128.6 302.828 128.903 303.388 129.51C303.995 130.117 304.298 130.863 304.298 131.75C304.298 132.637 303.995 133.36 303.388 133.92C302.782 134.48 302.012 134.76 301.078 134.76H300.728C298.488 134.76 296.435 135.32 294.568 136.44C292.702 137.513 291.138 139.007 289.878 140.92V162.2C289.878 163.087 289.552 163.833 288.898 164.44C288.292 165.047 287.545 165.35 286.658 165.35Z" fill="black"/>
<path d="M324.05 165.7C321.157 165.7 318.403 164.977 315.79 163.53C313.223 162.037 311.123 159.89 309.49 157.09C307.903 154.243 307.11 150.93 307.11 147.15C307.11 143.37 307.903 140.08 309.49 137.28C311.123 134.433 313.223 132.287 315.79 130.84C318.403 129.347 321.157 128.6 324.05 128.6C328.623 128.6 332.613 130.373 336.02 133.92V116.77C336.02 115.837 336.323 115.067 336.93 114.46C337.583 113.853 338.353 113.55 339.24 113.55C340.127 113.55 340.873 113.877 341.48 114.53C342.087 115.137 342.39 115.883 342.39 116.77V162.2C342.39 163.087 342.087 163.833 341.48 164.44C340.873 165.047 340.127 165.35 339.24 165.35C338.353 165.35 337.583 165.047 336.93 164.44C336.323 163.833 336.02 163.087 336.02 162.2V160.38C332.613 163.927 328.623 165.7 324.05 165.7ZM324.96 159.75C327.107 159.75 329.113 159.283 330.98 158.35C332.893 157.37 334.573 156.087 336.02 154.5V139.8C334.573 138.213 332.893 136.953 330.98 136.02C329.113 135.04 327.107 134.55 324.96 134.55C321.507 134.55 318.73 135.647 316.63 137.84C314.53 140.033 313.48 143.137 313.48 147.15C313.48 151.163 314.53 154.267 316.63 156.46C318.73 158.653 321.507 159.75 324.96 159.75Z" fill="black"/>
<path d="M362.54 165.7C360.487 165.7 358.573 165.28 356.8 164.44C355.073 163.6 353.697 162.387 352.67 160.8C351.643 159.167 351.13 157.3 351.13 155.2C351.13 151.747 352.483 148.993 355.19 146.94C357.943 144.887 361.957 143.86 367.23 143.86H375.7V143.3C375.7 140.22 374.93 138.003 373.39 136.65C371.897 135.297 369.54 134.62 366.32 134.62C364.547 134.62 362.96 134.76 361.56 135.04C360.207 135.32 358.69 135.74 357.01 136.3C356.637 136.393 356.333 136.44 356.1 136.44C355.4 136.44 354.793 136.183 354.28 135.67C353.767 135.157 353.51 134.527 353.51 133.78C353.51 132.52 354.117 131.633 355.33 131.12C359.297 129.44 363.333 128.6 367.44 128.6C370.66 128.6 373.367 129.253 375.56 130.56C377.8 131.867 379.433 133.57 380.46 135.67C381.533 137.723 382.07 139.963 382.07 142.39V162.2C382.07 163.087 381.743 163.833 381.09 164.44C380.483 165.047 379.737 165.35 378.85 165.35C377.963 165.35 377.217 165.047 376.61 164.44C376.003 163.833 375.7 163.087 375.7 162.2V160.38C372.247 163.927 367.86 165.7 362.54 165.7ZM364.92 160.1C366.973 160.1 368.957 159.61 370.87 158.63C372.783 157.603 374.393 156.343 375.7 154.85V148.97H368.07C361.023 148.97 357.5 150.813 357.5 154.5C357.5 156.18 358.06 157.533 359.18 158.56C360.347 159.587 362.26 160.1 364.92 160.1Z" fill="black"/>
<path d="M395.897 165.35C395.01 165.35 394.263 165.047 393.657 164.44C393.05 163.833 392.747 163.087 392.747 162.2V132.17C392.747 131.283 393.05 130.537 393.657 129.93C394.263 129.277 395.01 128.95 395.897 128.95C396.783 128.95 397.53 129.277 398.137 129.93C398.79 130.537 399.117 131.283 399.117 132.17V135.04C400.89 133.08 402.803 131.517 404.857 130.35C406.91 129.183 409.337 128.6 412.137 128.6C414.703 128.6 416.92 129.207 418.787 130.42C420.7 131.633 422.147 133.29 423.127 135.39C424.153 137.49 424.667 139.8 424.667 142.32V162.2C424.667 163.087 424.34 163.833 423.687 164.44C423.08 165.047 422.333 165.35 421.447 165.35C420.56 165.35 419.813 165.047 419.207 164.44C418.6 163.833 418.297 163.087 418.297 162.2V143.02C418.297 137.327 415.73 134.48 410.597 134.48C408.263 134.48 406.163 135.087 404.297 136.3C402.477 137.513 400.75 139.147 399.117 141.2V162.2C399.117 163.087 398.79 163.833 398.137 164.44C397.53 165.047 396.783 165.35 395.897 165.35Z" fill="black"/>
<path d="M451.153 165.7C447.56 165.7 444.41 164.93 441.703 163.39C438.996 161.85 436.896 159.68 435.403 156.88C433.956 154.033 433.233 150.79 433.233 147.15C433.233 143.51 433.956 140.29 435.403 137.49C436.896 134.643 438.996 132.45 441.703 130.91C444.41 129.37 447.56 128.6 451.153 128.6C454.7 128.6 457.826 129.37 460.533 130.91C463.24 132.45 465.34 134.643 466.833 137.49C468.326 140.29 469.073 143.51 469.073 147.15C469.073 150.79 468.326 154.033 466.833 156.88C465.34 159.68 463.24 161.85 460.533 163.39C457.826 164.93 454.7 165.7 451.153 165.7ZM451.153 159.89C453.066 159.89 454.886 159.447 456.613 158.56C458.386 157.673 459.833 156.273 460.953 154.36C462.12 152.447 462.703 150.02 462.703 147.08C462.703 144.187 462.12 141.783 460.953 139.87C459.833 137.957 458.386 136.58 456.613 135.74C454.886 134.853 453.066 134.41 451.153 134.41C449.193 134.41 447.326 134.853 445.553 135.74C443.826 136.58 442.403 137.957 441.283 139.87C440.163 141.783 439.603 144.187 439.603 147.08C439.603 150.02 440.163 152.447 441.283 154.36C442.403 156.273 443.826 157.673 445.553 158.56C447.326 159.447 449.193 159.89 451.153 159.89Z" fill="black"/>
<path d="M499.19 165.7C493.263 165.7 487.71 164.58 482.53 162.34C481.97 162.107 481.503 161.733 481.13 161.22C480.757 160.66 480.57 160.077 480.57 159.47C480.57 158.677 480.827 158 481.34 157.44C481.9 156.833 482.6 156.53 483.44 156.53C483.907 156.53 484.35 156.623 484.77 156.81C489.063 158.723 493.66 159.68 498.56 159.68C506.727 159.68 510.81 156.997 510.81 151.63C510.81 150.23 510.273 149.063 509.2 148.13C508.173 147.197 506.89 146.473 505.35 145.96C503.81 145.4 501.617 144.747 498.77 144C494.99 143.02 491.933 142.087 489.6 141.2C487.267 140.267 485.26 138.89 483.58 137.07C481.9 135.25 481.06 132.823 481.06 129.79C481.06 127.13 481.76 124.727 483.16 122.58C484.56 120.387 486.613 118.66 489.32 117.4C492.073 116.093 495.363 115.44 499.19 115.44C504.323 115.44 508.967 116.21 513.12 117.75C514.427 118.217 515.08 119.15 515.08 120.55C515.08 121.297 514.823 121.973 514.31 122.58C513.797 123.187 513.12 123.49 512.28 123.49C512 123.49 511.627 123.397 511.16 123.21C507.52 121.95 503.763 121.32 499.89 121.32C496.203 121.32 493.193 122.02 490.86 123.42C488.573 124.82 487.43 126.78 487.43 129.3C487.43 130.98 487.967 132.357 489.04 133.43C490.16 134.457 491.537 135.273 493.17 135.88C494.85 136.44 497.113 137.047 499.96 137.7C503.647 138.587 506.61 139.473 508.85 140.36C511.137 141.247 513.073 142.623 514.66 144.49C516.293 146.357 517.11 148.877 517.11 152.05C517.11 154.663 516.363 157.02 514.87 159.12C513.377 161.173 511.277 162.783 508.57 163.95C505.863 165.117 502.737 165.7 499.19 165.7Z" fill="#268DDF"/>
<path d="M528.268 165.35C527.381 165.35 526.635 165.047 526.028 164.44C525.421 163.833 525.118 163.087 525.118 162.2V116.77C525.118 115.883 525.421 115.137 526.028 114.53C526.635 113.877 527.381 113.55 528.268 113.55C529.155 113.55 529.901 113.877 530.508 114.53C531.161 115.137 531.488 115.883 531.488 116.77V145.4L548.148 130C548.848 129.393 549.548 129.09 550.248 129.09C551.321 129.09 552.091 129.393 552.558 130C553.071 130.607 553.328 131.33 553.328 132.17C553.328 132.963 552.931 133.757 552.138 134.55L542.058 143.58L554.728 160.38C555.195 160.987 555.428 161.617 555.428 162.27C555.428 163.203 555.125 163.95 554.518 164.51C553.911 165.07 553.141 165.35 552.208 165.35C551.741 165.35 551.275 165.233 550.808 165C550.341 164.767 549.945 164.44 549.618 164.02L537.578 147.64L531.488 153.17V162.2C531.488 163.087 531.161 163.833 530.508 164.44C529.901 165.047 529.155 165.35 528.268 165.35Z" fill="#268DDF"/>
<path d="M566.272 122.02C565.292 122.02 564.452 121.67 563.752 120.97C563.052 120.27 562.702 119.43 562.702 118.45V118.17C562.702 117.19 563.052 116.35 563.752 115.65C564.452 114.95 565.292 114.6 566.272 114.6H566.692C567.672 114.6 568.512 114.95 569.212 115.65C569.912 116.35 570.262 117.19 570.262 118.17V118.45C570.262 119.43 569.912 120.27 569.212 120.97C568.512 121.67 567.672 122.02 566.692 122.02H566.272ZM566.412 165.35C565.526 165.35 564.779 165.047 564.172 164.44C563.566 163.833 563.262 163.087 563.262 162.2V132.17C563.262 131.283 563.566 130.537 564.172 129.93C564.779 129.277 565.526 128.95 566.412 128.95C567.346 128.95 568.116 129.253 568.722 129.86C569.329 130.467 569.632 131.237 569.632 132.17V162.2C569.632 163.087 569.306 163.833 568.652 164.44C568.046 165.047 567.299 165.35 566.412 165.35Z" fill="#268DDF"/>
<path d="M583.844 165.35C582.957 165.35 582.211 165.047 581.604 164.44C580.997 163.833 580.694 163.087 580.694 162.2V116.77C580.694 115.883 580.997 115.137 581.604 114.53C582.211 113.877 582.957 113.55 583.844 113.55C584.777 113.55 585.547 113.853 586.154 114.46C586.761 115.067 587.064 115.837 587.064 116.77V162.2C587.064 163.087 586.737 163.833 586.084 164.44C585.477 165.047 584.731 165.35 583.844 165.35Z" fill="#268DDF"/>
<path d="M601.276 165.35C600.389 165.35 599.642 165.047 599.036 164.44C598.429 163.833 598.126 163.087 598.126 162.2V116.77C598.126 115.883 598.429 115.137 599.036 114.53C599.642 113.877 600.389 113.55 601.276 113.55C602.209 113.55 602.979 113.853 603.586 114.46C604.192 115.067 604.496 115.837 604.496 116.77V162.2C604.496 163.087 604.169 163.833 603.516 164.44C602.909 165.047 602.162 165.35 601.276 165.35Z" fill="#268DDF"/>
<path d="M627.107 165.7C622.441 165.7 618.194 164.65 614.367 162.55C613.574 161.99 613.177 161.22 613.177 160.24C613.177 159.493 613.434 158.84 613.947 158.28C614.461 157.72 615.114 157.44 615.907 157.44C616.327 157.44 616.747 157.533 617.167 157.72C618.661 158.373 620.154 158.887 621.647 159.26C623.141 159.633 624.821 159.82 626.687 159.82C631.867 159.82 634.457 158.163 634.457 154.85C634.457 153.777 633.851 152.96 632.637 152.4C631.471 151.84 629.534 151.21 626.827 150.51C624.074 149.857 621.787 149.18 619.967 148.48C618.194 147.78 616.654 146.73 615.347 145.33C614.087 143.883 613.457 141.993 613.457 139.66C613.457 136.393 614.624 133.733 616.957 131.68C619.337 129.627 622.721 128.6 627.107 128.6C630.701 128.6 634.084 129.183 637.257 130.35C637.911 130.537 638.401 130.887 638.727 131.4C639.101 131.913 639.287 132.45 639.287 133.01C639.287 133.757 639.007 134.41 638.447 134.97C637.934 135.53 637.281 135.81 636.487 135.81C636.254 135.81 635.951 135.763 635.577 135.67C632.871 134.83 630.211 134.41 627.597 134.41C625.077 134.41 623.094 134.877 621.647 135.81C620.247 136.697 619.547 137.863 619.547 139.31C619.547 140.71 620.201 141.737 621.507 142.39C622.814 143.043 624.844 143.673 627.597 144.28C630.351 144.98 632.591 145.68 634.317 146.38C636.044 147.033 637.514 148.083 638.727 149.53C639.987 150.977 640.617 152.913 640.617 155.34C640.617 158.327 639.427 160.8 637.047 162.76C634.714 164.72 631.401 165.7 627.107 165.7Z" fill="#268DDF"/>
<path d="M151.65 189L71.2752 189C70.9031 189 70.4565 189 70.0844 189C66.8099 188.769 63.7586 187.769 61.1538 186.077C55.6467 182.538 52 176.231 52 169.077L52 86C52 74.9231 60.6329 66 71.3496 66L151.725 66C151.874 66 152.097 66 152.246 66C153.437 66 154.553 66.1538 155.669 66.3846C164.376 68.2308 171 76.3077 171 85.9231L171 169C171 178.615 164.376 186.692 155.595 188.615C154.33 188.846 152.99 189 151.65 189Z" fill="url(#paint0_linear_21_2)"/>
<path d="M151.65 195L71.2752 195C70.9031 195 70.4565 195 70.0844 195C66.8099 194.764 63.7586 193.739 61.1538 192.006C55.6467 188.381 52 181.919 52 174.591L52 89.4878C52 78.1407 60.6329 69 71.3496 69L151.725 69C151.874 69 152.097 69 152.246 69C153.437 69 154.553 69.1576 155.669 69.394C164.376 71.2852 171 79.5591 171 89.409L171 174.512C171 184.362 164.376 192.636 155.595 194.606C154.33 194.842 152.99 195 151.65 195Z" fill="url(#paint1_linear_21_2)"/>
<path d="M175.872 92.3134V172.539C175.872 172.91 175.872 173.356 175.872 173.727C175.629 176.995 174.577 180.041 172.798 182.641C169.078 188.138 162.445 191.778 154.923 191.778H67.5727C55.9259 191.778 46.5438 183.161 46.5438 172.464V92.2392C46.5438 92.0906 46.5438 91.8678 46.5438 91.7192C46.5438 90.5307 46.7055 89.4164 46.9482 88.3022C48.8893 79.6111 57.3817 73 67.4918 73H154.843C164.953 73 173.445 79.6111 175.467 88.3765C175.71 89.6393 175.872 90.9764 175.872 92.3134Z" fill="url(#paint2_linear_21_2)"/>
<path opacity="0.05" d="M100.572 184.406C93.4546 164.944 74.205 150.608 51.1541 148.899C49.6174 148.751 48.0807 148.751 46.5439 148.751V157.665C49.213 157.665 51.8821 157.887 54.4702 158.259C55.5217 158.407 56.5731 158.63 57.5437 158.853C73.3962 162.344 86.1753 173.19 91.3517 187.229C91.837 188.492 92.2414 189.755 92.5649 191.017C92.5649 191.166 92.6458 191.315 92.6458 191.463H102.513C102.028 189.012 101.381 186.709 100.572 184.406Z" fill="white"/>
<path opacity="0.05" d="M140.365 96.9014V173.338H175.872C175.629 176.606 174.578 179.652 172.798 182.252H140.365V191.389H130.66V96.9014H46.5439V91.9245C46.5439 90.5874 46.7057 89.2503 46.9483 87.9875H130.66V72.5367H140.365V87.9132H175.467C175.791 89.176 175.872 90.5131 175.872 91.8502V96.8271H140.365V96.9014Z" fill="white"/>
<g clip-path="url(#clip0_21_2)">
<path d="M90.3979 132.201C90.208 135.53 92.7475 138.381 96.0464 138.572C96.1651 138.572 96.2837 138.572 96.4024 138.572C99.7251 138.572 102.407 135.866 102.383 132.512C102.383 129.158 99.7013 126.452 96.3787 126.476C93.1984 126.476 90.564 128.991 90.3979 132.201Z" fill="white"/>
<path d="M68.041 130.644C66.973 130.572 66.0474 131.41 66 132.488C65.9525 133.566 66.7594 134.5 67.8274 134.548C68.8954 134.62 69.7973 133.782 69.8685 132.704C69.9397 131.626 69.109 130.715 68.041 130.644Z" fill="white"/>
<path d="M90.0181 97.0843C90.9675 96.6052 91.3472 95.4075 90.8725 94.4494C90.3979 93.4912 89.2112 93.1079 88.2619 93.587C87.3125 94.0661 86.9328 95.2398 87.4075 96.198C87.8821 97.1801 89.0451 97.5873 90.0181 97.0843Z" fill="white"/>
<path d="M96.0939 107.792C97.5653 107.049 98.1586 105.229 97.4229 103.743C96.6872 102.258 94.8835 101.659 93.412 102.402C91.9405 103.145 91.3472 104.965 92.0829 106.45C92.8187 107.935 94.6224 108.534 96.0939 107.792Z" fill="white"/>
<path d="M75.6357 115.145C76.7749 115.888 78.2938 115.577 79.0533 114.427C79.789 113.277 79.4805 111.744 78.3413 110.977C77.2021 110.235 75.6832 110.546 74.9237 111.696C74.1642 112.846 74.4965 114.403 75.6357 115.145Z" fill="white"/>
<path d="M79.2669 129.566C77.6056 129.47 76.2053 130.739 76.1104 132.416C76.0155 134.093 77.2733 135.506 78.9347 135.602C80.596 135.698 81.9963 134.428 82.0912 132.752C82.1861 131.099 80.9283 129.661 79.2669 129.566Z" fill="white"/>
<path d="M75.968 149.855C74.7576 150.477 74.2592 151.962 74.8763 153.208C75.4934 154.43 76.9648 154.933 78.199 154.31C79.4094 153.687 79.9078 152.202 79.2907 150.956C78.6736 149.735 77.1784 149.232 75.968 149.855Z" fill="white"/>
<path d="M87.5974 123.314C89.235 124.392 91.4184 123.937 92.4627 122.284C93.5307 120.631 93.0798 118.427 91.4422 117.373C89.8046 116.295 87.6211 116.75 86.5768 118.403C85.5088 120.032 85.9598 122.236 87.5974 123.314Z" fill="white"/>
<path d="M124.503 107.552C125.879 108.462 127.754 108.079 128.656 106.69C129.558 105.3 129.178 103.408 127.802 102.498C126.425 101.588 124.55 101.971 123.648 103.36C122.723 104.773 123.102 106.642 124.503 107.552Z" fill="white"/>
<path d="M130.626 96.8926C131.528 97.4915 132.714 97.228 133.308 96.3177C133.901 95.4075 133.64 94.2098 132.738 93.611C131.836 93.0121 130.65 93.2756 130.056 94.1619C129.487 95.0721 129.748 96.2938 130.626 96.8926Z" fill="white"/>
<path d="M124.954 126.428C121.655 126.236 118.807 128.799 118.641 132.129C118.451 135.458 120.99 138.333 124.289 138.5C124.408 138.5 124.526 138.5 124.621 138.5C127.92 138.5 130.602 135.794 130.602 132.44C130.626 129.254 128.134 126.595 124.954 126.428Z" fill="white"/>
<path d="M98.0637 122.883C99.0843 124.919 101.149 126.212 103.427 126.212C106.726 126.212 109.408 123.505 109.408 120.152C109.408 119.218 109.195 118.283 108.767 117.421C107.272 114.427 103.665 113.229 100.722 114.738C97.7552 116.271 96.5685 119.912 98.0637 122.883Z" fill="white"/>
<path d="M145.032 115.145C146.242 114.523 146.717 113.014 146.1 111.792C145.483 110.57 143.988 110.091 142.777 110.714C141.567 111.337 141.092 112.822 141.686 114.044C142.326 115.265 143.798 115.768 145.032 115.145Z" fill="white"/>
<path d="M129.843 117.062C128.11 117.948 127.398 120.08 128.276 121.829C129.154 123.577 131.267 124.296 132.999 123.41C134.732 122.523 135.444 120.391 134.566 118.643C133.687 116.894 131.575 116.199 129.843 117.062Z" fill="white"/>
<path d="M110.263 95.9824C111.615 96.0543 112.778 95.0003 112.873 93.6349C112.968 92.2696 111.9 91.0958 110.547 91C109.195 90.9281 108.032 91.9582 107.937 93.3235C107.866 94.7128 108.91 95.8866 110.263 95.9824Z" fill="white"/>
<path d="M110.239 111.624C112.185 111.744 113.846 110.235 113.941 108.271C114.06 106.306 112.565 104.63 110.619 104.534C108.673 104.414 107.011 105.923 106.916 107.887C106.821 109.852 108.293 111.528 110.239 111.624Z" fill="white"/>
<path d="M91.1574 147.938C92.8899 147.052 93.6019 144.92 92.7238 143.171C91.8456 141.423 89.7334 140.704 88.0008 141.59C86.2683 142.477 85.5563 144.609 86.4344 146.357C87.3126 148.106 89.4248 148.825 91.1574 147.938Z" fill="white"/>
<path d="M112.517 116.822C110.714 119.625 111.473 123.362 114.25 125.182C117.027 127.003 120.729 126.236 122.533 123.433C124.337 120.631 123.577 116.894 120.8 115.074C119.827 114.427 118.688 114.091 117.525 114.091C115.508 114.091 113.633 115.122 112.517 116.822Z" fill="white"/>
<path d="M122.936 142.117C121.441 139.123 117.834 137.926 114.891 139.435C111.924 140.944 110.737 144.585 112.233 147.555C113.728 150.549 117.335 151.747 120.278 150.238C123.221 148.753 124.431 145.16 122.96 142.165C122.96 142.141 122.96 142.141 122.936 142.117Z" fill="white"/>
<path d="M133.403 141.686C131.765 140.608 129.582 141.063 128.537 142.716C127.469 144.369 127.92 146.573 129.558 147.627C131.195 148.705 133.379 148.25 134.423 146.597C135.491 144.968 135.04 142.764 133.403 141.686Z" fill="white"/>
<path d="M144.89 132.608C144.985 130.931 143.727 129.518 142.065 129.422C140.404 129.326 139.004 130.596 138.909 132.272C138.814 133.949 140.072 135.362 141.733 135.458C143.371 135.554 144.795 134.261 144.89 132.608Z" fill="white"/>
<path d="M153.173 130.452C152.105 130.38 151.179 131.218 151.131 132.296C151.084 133.374 151.891 134.309 152.959 134.356C154.027 134.428 154.929 133.59 155 132.512C155.047 131.434 154.241 130.524 153.173 130.452Z" fill="white"/>
<path d="M145.364 149.855C144.225 149.112 142.706 149.423 141.947 150.573C141.211 151.723 141.519 153.256 142.659 154.023C143.798 154.765 145.317 154.454 146.076 153.304C146.836 152.154 146.503 150.597 145.364 149.855Z" fill="white"/>
<path d="M90.3504 168.107C89.4485 167.509 88.2618 167.772 87.6685 168.658C87.0752 169.569 87.3362 170.766 88.2144 171.365C89.1162 171.964 90.3029 171.7 90.8962 170.814C91.5133 169.928 91.2522 168.706 90.3504 168.107Z" fill="white"/>
<path d="M130.982 167.916C130.033 168.395 129.653 169.593 130.127 170.551C130.602 171.509 131.789 171.892 132.738 171.413C133.687 170.934 134.067 169.76 133.593 168.802C133.118 167.82 131.955 167.413 130.982 167.916Z" fill="white"/>
<path d="M108.483 148.178C110.286 145.375 109.527 141.638 106.75 139.794C103.973 137.973 100.271 138.74 98.4435 141.543C96.616 144.345 97.3992 148.082 100.176 149.926C101.149 150.573 102.288 150.909 103.451 150.909C105.492 150.932 107.367 149.902 108.483 148.178Z" fill="white"/>
<path d="M96.4973 157.448C95.1208 156.538 93.2458 156.921 92.344 158.31C91.4421 159.7 91.8218 161.592 93.1984 162.502C94.5749 163.412 96.4498 163.029 97.3517 161.64C98.2773 160.251 97.8976 158.358 96.4973 157.448Z" fill="white"/>
<path d="M110.476 169.018C109.123 168.946 107.961 170 107.866 171.365C107.771 172.73 108.839 173.904 110.191 174C111.544 174.072 112.707 173.042 112.802 171.676C112.873 170.287 111.829 169.113 110.476 169.018Z" fill="white"/>
<path d="M110.5 153.376C108.554 153.256 106.893 154.765 106.798 156.729C106.679 158.694 108.174 160.37 110.12 160.466C112.066 160.562 113.728 159.077 113.823 157.113C113.941 155.172 112.446 153.472 110.5 153.376Z" fill="white"/>
<path d="M124.906 157.208C123.435 157.975 122.841 159.795 123.601 161.281C124.36 162.766 126.164 163.364 127.635 162.598C129.107 161.855 129.7 160.035 128.965 158.55C128.205 157.065 126.401 156.442 124.906 157.208Z" fill="white"/>
</g>
<defs>
<linearGradient id="paint0_linear_21_2" x1="109.897" y1="67.5306" x2="109.897" y2="190.61" gradientUnits="userSpaceOnUse">
<stop offset="0.2047" stop-color="#3BA7E9"/>
<stop offset="0.412" stop-color="#2F98E3"/>
<stop offset="0.6524" stop-color="#278FDF"/>
<stop offset="1" stop-color="#071521"/>
</linearGradient>
<linearGradient id="paint1_linear_21_2" x1="109.897" y1="70.568" x2="109.897" y2="196.649" gradientUnits="userSpaceOnUse">
<stop offset="0.412" stop-color="#6CBDF7"/>
<stop offset="0.6524" stop-color="#278FDF"/>
<stop offset="1" stop-color="#258CDE"/>
</linearGradient>
<linearGradient id="paint2_linear_21_2" x1="112.457" y1="73.4678" x2="101.306" y2="190.487" gradientUnits="userSpaceOnUse">
<stop stop-color="#4FBFF2"/>
<stop offset="0.0159962" stop-color="#4DBDF1"/>
<stop offset="0.2047" stop-color="#3BA7E9"/>
<stop offset="0.412" stop-color="#2F98E3"/>
<stop offset="0.6524" stop-color="#278FDF"/>
<stop offset="1" stop-color="#258CDE"/>
</linearGradient>
<clipPath id="clip0_21_2">
<rect width="89" height="83" fill="white" transform="translate(66 91)"/>
</clipPath>
</defs>
</svg>
